<?xml version="1.0" encoding="UTF-8" standalone="no"?>
<svg
   version="1.0"
   width="790.74707"
   height="184.28719"
   viewBox="0 0 790.74707 184.28719"
   preserveAspectRatio="xMidYMid"
   id="svg16"
   sodipodi:docname="FreeSample-Vectorizer-io-LogoKinematech(1).svg"
   inkscape:version="1.4 (e7c3feb100, 2024-10-09)"
   xmlns:inkscape="http://www.inkscape.org/namespaces/inkscape"
   xmlns:sodipodi="http://sodipodi.sourceforge.net/DTD/sodipodi-0.dtd"
   xmlns="http://www.w3.org/2000/svg"
   xmlns:svg="http://www.w3.org/2000/svg">
  <defs
     id="defs16" />
  <sodipodi:namedview
     id="namedview16"
     pagecolor="#ffffff"
     bordercolor="#000000"
     borderopacity="0.25"
     inkscape:showpageshadow="2"
     inkscape:pageopacity="0.0"
     inkscape:pagecheckerboard="0"
     inkscape:deskcolor="#d1d1d1"
     showgrid="false"
     inkscape:zoom="6.328125"
     inkscape:cx="179.43704"
     inkscape:cy="128.94815"
     inkscape:window-width="1920"
     inkscape:window-height="1012"
     inkscape:window-x="0"
     inkscape:window-y="1080"
     inkscape:window-maximized="1"
     inkscape:current-layer="g16" />
  <g
     fill="#00a2e5"
     id="g16"
     transform="translate(-125.25291,-425.13304)">
    <path
       d="m 144,609.05 c -4.35,-0.85 -10.75,-5.6 -13.9,-10.3 -2.9,-4.4 -3.85,-7.6 -3.85,-13.25 0,-4.6 0.1,-4.9 2.1,-9 2.95,-5.85 6.7,-9.6 12.3,-12.15 l 1.85,-0.85 v -44.7 -44.75 l -3.65,-1.75 c -9.25,-4.45 -15,-15.65 -13.3,-25.85 1.85,-10.75 10.95,-19.45 21.95,-21 3.85,-0.5 4.7,-0.45 8.3,0.45 11.35,2.85 19.25,12.65 19.2,23.85 -0.1,10.3 -5.1,18.35 -14.35,23 l -2.65,1.3 v 17.75 c 0,17.3 0,17.7 0.95,17.2 0.55,-0.25 1.05,-0.7 1.15,-1 0.05,-0.25 10.75,-11.1 23.65,-24.1 12.95,-13 26.3,-26.55 29.7,-30.15 15.2,-16 23.1,-23.7 25.2,-24.5 1.8,-0.65 5.15,-0.75 23.85,-0.65 l 21.75,0.15 2.15,1.2 c 2.6,1.55 4.85,4.9 5.65,8.5 0.65,3.2 0.2,9.05 -0.9,11.3 -0.4,0.8 -6.55,7.35 -13.6,14.5 -37.45,37.8 -44.25,44.8 -46.75,48.2 -1.55,2.05 -2.8,4 -2.8,4.4 0,1.5 8.55,10.4 51.4,53.5 12.1,12.2 12.75,13.1 12.8,19.15 0.05,4.95 -0.9,8 -3.3,10.75 -3.5,4 -2.85,3.9 -27.15,3.95 -25.1,0.05 -23.8,0.3 -29.25,-5.5 -1.75,-1.9 -13.45,-13.9 -25.95,-26.7 -35.8,-36.55 -47.15,-48.25 -47.7,-49.25 -0.75,-1.4 -1.25,-0.75 -1.1,1.4 0.1,1.15 0.2,10.55 0.25,20.85 l 0.05,18.75 3.05,1.45 c 8.55,4.05 14.15,14.85 12.5,24.05 -1.05,5.55 -2.55,8.6 -6.05,12.35 -3.6,3.85 -7,6 -11.3,7.15 -3,0.75 -9.05,0.9 -12.25,0.3 z m 10.5,-15.9 c 0.75,-0.45 1.95,-1.7 2.7,-2.85 1.2,-1.75 1.35,-2.45 1.2,-5.05 -0.25,-3.8 -1.5,-5.7 -4.75,-7.25 -2.15,-1.05 -2.65,-1.1 -5.1,-0.6 -3.55,0.75 -4.95,1.75 -6.1,4.25 -3,6.65 1.75,13.4 8.75,12.55 1.1,-0.15 2.55,-0.6 3.3,-1.05 z m 119,-5.1 c 0,-0.1 -4.45,-4.8 -9.85,-10.5 -5.45,-5.65 -15.05,-15.7 -21.35,-22.3 -6.35,-6.6 -15.15,-15.7 -19.6,-20.25 -4.45,-4.55 -8.45,-9 -8.9,-9.9 -1.1,-2.15 -1.25,-12.75 -0.3,-15.95 0.85,-2.85 3.25,-5.45 27.5,-30.15 11.2,-11.4 22,-22.65 24.05,-25 2.05,-2.35 4.9,-5.45 6.35,-6.95 1.4,-1.5 2.6,-2.8 2.6,-2.9 0,-0.05 -6.1,-0.15 -13.6,-0.15 -12.75,0 -13.7,0.05 -15.75,1.05 -1.2,0.55 -2.6,1.65 -3.2,2.35 -0.55,0.7 -7.1,7.6 -14.6,15.35 -7.5,7.7 -16.3,16.8 -19.6,20.2 -3.3,3.45 -10.85,11.2 -16.8,17.25 -5.95,6.1 -11.85,12.25 -13.2,13.7 l -2.4,2.65 8.2,8.35 c 4.5,4.6 11.1,11.4 14.7,15.1 3.55,3.7 11.45,11.8 17.5,18 6.05,6.2 14.8,15.2 19.4,20.1 4.65,4.85 9.05,9.1 9.8,9.5 1.05,0.5 4.65,0.65 15.2,0.65 7.65,0 13.85,-0.1 13.85,-0.2 z M 152.55,460.45 c 2.55,-0.8 5.25,-3.1 6.5,-5.6 0.85,-1.6 1,-2.7 0.85,-5.65 -0.15,-3.15 -0.35,-3.85 -1.7,-5.5 -0.85,-1.05 -2.2,-2.3 -3,-2.75 -1.65,-1 -6.4,-1.25 -8.55,-0.4 -1.7,0.6 -4,2.75 -4.9,4.45 -2.05,3.9 -1.1,10 2,13 2.95,2.85 5.2,3.5 8.8,2.45 z"
       id="path6" />
    <path
       d="m 822.75,553 c -6.2,-0.85 -12.15,-4 -17.75,-9.5 -7.7,-7.55 -11.05,-17.95 -10,-31.15 1.35,-16.65 10.9,-28.4 25.25,-31.1 8.45,-1.6 16.85,0 23.95,4.6 1.95,1.25 3.65,2.4 3.8,2.6 0.15,0.15 0.95,0.9 1.8,1.6 l 1.6,1.3 -3.85,4.55 c -2.1,2.5 -3.95,4.55 -4.1,4.55 -0.15,0.05 -1.4,-0.95 -2.7,-2.2 -1.35,-1.25 -3.7,-2.85 -5.25,-3.6 -2.5,-1.25 -3.25,-1.4 -8,-1.4 -4.6,0 -5.6,0.15 -8,1.3 -3.8,1.75 -6.05,3.85 -7.85,7.3 -2.55,4.85 -3.3,9 -3.05,17.25 0.2,7.05 0.35,7.7 2.5,12.25 2.7,5.6 7.5,8.55 14.8,9 7.2,0.45 12.6,-1.3 17,-5.5 1.15,-1.15 2.1,-1.8 2.1,-1.45 0,0.3 1.5,2.4 3.3,4.65 l 3.3,4.05 -2.2,2 c -5.15,4.65 -10.7,7.5 -16.75,8.7 -3.95,0.75 -5.8,0.8 -9.9,0.2 z"
       id="path7" />
    <path
       d="m 356.55,551.5 c -0.5,-0.4 -7.65,-9.85 -17.7,-23.4 -1.9,-2.55 -3.75,-4.6 -4.1,-4.6 -0.35,0 -1.6,1.1 -2.7,2.45 L 330,528.4 v 11.55 11.55 l -12.03086,0.15802 c 0,0 -0.17563,-17.67848 -0.0191,-70.25802 l 6,-0.05 6.05,-0.1 v 15.2 15.2 l 1.3,-1.2 c 0.7,-0.65 3.9,-4.45 7.15,-8.45 3.2,-4 8.2,-10.1 11,-13.6 l 5.2,-6.4 h 8.5 8.55 l -2.25,2.15 c -1.2,1.2 -3.45,3.6 -4.95,5.4 -1.5,1.75 -2.85,3.3 -3,3.45 -0.15,0.15 -2.75,3.15 -5.75,6.7 -3.05,3.55 -6.9,8.05 -8.6,10 -1.75,1.95 -3.15,3.8 -3.15,4.05 0,0.8 4.6,6.55 20.7,26.05 1.4,1.7 3.55,4.45 4.8,6.15 1.2,1.75 2.65,3.6 3.15,4.2 l 0.95,1.1 -2.7,0.1 c -6.5,0.3 -14.05,0.4 -14.35,0.15 z"
       id="path8"
       sodipodi:nodetypes="ccsccccccccccccccccccsccscccccc" />
    <path
       d="m 410.7,551.55 c -0.1,-0.1 -0.2,-15.95 -0.2,-35.15 v -34.95 l 6.1,0.15 6.1,0.15 4.65,6.75 c 6.95,10.05 10.6,15.55 14.9,22.5 4.55,7.25 10.7,16.4 11.3,16.8 0.25,0.15 0.45,-9.9 0.45,-22.95 V 481.6 l 6.5,-0.05 h 6.5 v 35.1 35.1 l -5.6,-0.05 -5.55,-0.05 -4.65,-6.7 c -2.55,-3.7 -7.95,-11.65 -12,-17.7 -9.25,-13.7 -15.1,-22.15 -15.6,-22.45 -0.2,-0.1 -0.25,10.4 -0.15,23.35 l 0.15,23.6 h -6.35 c -3.5,0 -6.45,-0.1 -6.55,-0.2 z"
       id="path9" />
    <path
       d="m 481.9,545 c -0.1,-3.7 -0.15,-19.45 -0.15,-35 v -28.25 h 21.75 21.75 v 5.6 c 0,3.45 -0.2,5.65 -0.5,5.65 -0.25,0 -7.25,0.05 -15.45,0.15 l -14.95,0.1 0.05,8 v 8 l 14.05,0.15 14.05,0.1 v 5.8 5.75 l -13.85,-0.1 -13.9,-0.05 -0.25,9.15 c -0.15,5.05 -0.2,9.35 -0.1,9.6 0.1,0.2 7.55,0.35 16.6,0.35 h 16.4 l -0.15,5.75 -0.15,5.8 -22.55,0.1 -22.5,0.1 z"
       id="path10" />
    <path
       d="M 540,516.65 V 481.5 h 6.65 c 5.85,0 6.8,0.1 7.5,0.9 0.5,0.5 0.85,1.1 0.85,1.3 0,0.3 5.8,12.25 14.35,29.7 2.35,4.7 4.4,8.6 4.65,8.6 0.2,0 1.2,-2.2 2.25,-4.85 2.3,-5.85 4.1,-9.8 11.3,-24.55 l 5.45,-11.15 7.25,0.15 7.3,0.15 -0.05,34.7 c 0,19.1 -0.1,34.8 -0.2,34.9 -0.15,0.15 -7.55,0.4 -12.35,0.4 -0.05,0 -0.25,-10.55 -0.4,-23.5 -0.3,-23.4 -0.3,-23.5 -1.25,-21.5 -2.6,5.7 -10.3,20.7 -13.55,26.45 -0.75,1.35 -2.1,3.85 -3,5.6 -0.9,1.7 -1.95,3.6 -2.4,4.2 -0.7,1.05 -0.75,1.05 -2.2,-0.85 -0.85,-1.05 -4.2,-7.3 -7.45,-13.9 -3.25,-6.6 -6.75,-13.5 -7.75,-15.35 -1,-1.85 -2.25,-4.45 -2.8,-5.75 l -0.9,-2.4 -0.25,23.4 -0.25,23.4 -6.4,0.1 -6.35,0.1 z"
       id="path11" />
    <path
       d="m 699.45,526 c -0.05,-14.15 -0.1,-27.2 -0.1,-29 l -0.1,-3.25 -9.6,-0.15 -9.65,-0.1 v -6 -6 h 25.75 25.8 l -0.15,5.9 -0.15,5.85 -9.6,0.15 c -5.3,0.05 -9.65,0.3 -9.65,0.5 0,0.2 -0.05,13.25 -0.15,29 l -0.1,28.7 -6.15,0.05 -6.1,0.1 z"
       id="path12" />
    <path
       d="m 763.7,551.6 -22.6,-0.1 -0.35,-13.65 C 740.6,530.4 740.5,514.7 740.6,503 l 0.15,-21.25 22.15,-0.15 22.1,-0.1 v 5.75 5.75 l -15.35,0.1 -15.4,0.15 -0.15,8.15 -0.1,8.1 h 13.95 14 l 0.15,5.55 c 0.1,3.05 0.05,5.65 -0.05,5.75 -0.1,0.1 -6.4,0.2 -13.95,0.2 -7.55,0 -13.8,0.05 -13.9,0.1 -0.05,0.1 -0.2,4.3 -0.25,9.4 l -0.15,9.25 16.45,0.15 16.5,0.1 v 5.7 c 0,3.15 -0.1,5.8 -0.25,5.9 -0.15,0.05 -10.4,0.1 -22.8,0 z"
       id="path13" />
    <path
       d="m 903.2,551.55 c -0.1,-0.1 -0.2,-7 -0.2,-15.35 v -15.1 l -14.25,-0.05 -14.25,-0.05 -0.3,1.25 c -0.15,0.65 -0.2,7.5 -0.1,15.25 l 0.25,14 h -6.45 -6.4 l -0.05,-20.85 c -0.1,-31.2 0.05,-48.35 0.45,-48.75 0.4,-0.4 11.5,-0.65 11.9,-0.25 0.15,0.15 0.25,6.35 0.2,13.8 L 873.95,509 H 888.5 903 v -13.8 -13.8 l 6.5,0.2 6.5,0.15 v 35 35 h -6.3 c -3.45,0 -6.4,-0.1 -6.5,-0.2 z"
       id="path14" />
    <path
       d="m 383,516.4 v -35.15 l 6.15,0.15 6.15,0.15 -0.05,33.1 c -0.05,18.2 -0.1,33.95 -0.15,35 l -0.1,1.85 h -6 -6 z"
       id="path15" />
    <path
       d="m 619.15,550.65 c 1.6,-5.05 9.4,-27.3 12,-34.15 3.85,-10.3 10.7,-28.05 12.4,-32.1 l 1.2,-2.9 h 6.15 6.1 l 1.3,2.9 c 1.1,2.45 4.05,10.1 9.8,25.35 0.8,2.2 2.15,6.05 2.9,8.5 0.8,2.5 2.6,7.75 4,11.75 1.45,4 3.15,9.25 3.85,11.7 0.65,2.45 1.75,5.65 2.4,7.1 l 1.2,2.7 h -6.6 -6.6 l -1.7,-5.15 c -0.95,-2.8 -2.1,-5.95 -2.6,-6.95 C 664.4,538.35 664,537.2 664,536.75 664,536.1 662.35,536 650.55,536 H 637.1 l -0.6,2.4 c -0.7,2.85 -3.65,11.6 -4.15,12.5 -0.3,0.4 -2.25,0.6 -6.95,0.6 -6,0 -6.5,-0.05 -6.25,-0.85 z m 41.35,-26 c 0,-0.7 -1.85,-6.3 -3.15,-9.65 -0.7,-1.8 -2.6,-6.95 -4.2,-11.5 -2.65,-7.5 -2.9,-8.05 -3.05,-6.15 -0.1,1.15 -0.9,4.15 -1.8,6.75 -0.95,2.55 -2.5,7 -3.5,9.9 -1.05,2.9 -2.05,5.7 -2.25,6.25 -1.3,3.15 -1.55,3.85 -1.55,4.25 0,0.3 3.9,0.5 9.75,0.5 5.35,0 9.75,-0.15 9.75,-0.35 z"
       id="path16" />
  </g>
</svg>
